<svg width="16" height="16" viewBox="0 0 16 16" fill="none" xmlns="http://www.w3.org/2000/svg"><path d="M14.667 1.5H12.5v-1a.5.5 0 1 0-1 0v1h-3v-1a.5.5 0 1 0-1 0v1h-3v-1a.5.5 0 1 0-1 0v1H1.333C.597 1.5 0 2.096 0 2.833v11.833C0 15.403.597 16 1.333 16h13.334c.736 0 1.333-.597 1.333-1.334V2.833c0-.737-.597-1.333-1.333-1.333zM15 14.666c0 .184-.15.334-.333.334H1.333A.334.334 0 0 1 1 14.666V2.833c0-.183.15-.333.333-.333H3.5v1a.5.5 0 1 0 1 0v-1h3v1a.5.5 0 1 0 1 0v-1h3v1a.5.5 0 1 0 1 0v-1h2.167c.184 0 .333.15.333.333v11.833z" fill="#979797"/></svg>