<svg width="20" height="16" viewBox="0 0 20 16" fill="none" xmlns="http://www.w3.org/2000/svg"><path d="M18.68 0H1.32C.591 0 0 .598 0 1.334v13.332C0 15.402.592 16 1.32 16h17.36c.728 0 1.32-.598 1.32-1.334V1.334C20 .598 19.408 0 18.68 0zM1.32 1.143h17.36c.103 0 .189.088.189.19v8.88l-3.024-3.924a1.199 1.199 0 0 0-.901-.479 1.196 1.196 0 0 0-.934.41l-3.924 4.384a.367.367 0 0 1-.423.06L6.437 8.608c-.553-.352-1.362-.316-1.882.084l-3.424 2.635V1.334c0-.103.086-.19.188-.19zm17.36 13.714H1.32a.192.192 0 0 1-.189-.191v-1.901l4.11-3.162c.142-.11.442-.123.593-.026l3.227 2.053a1.486 1.486 0 0 0 1.864-.259l3.924-4.384c.023-.026.04-.034.053-.034.01 0 .03.01.05.038l3.917 5.081v2.594c0 .103-.086.19-.189.19z" fill="#3951E3"/><path d="M8.357 7.74a2.016 2.016 0 0 0 2.003-2.025c0-1.116-.898-2.025-2.003-2.025-1.104 0-2.003.909-2.003 2.025 0 1.117.899 2.025 2.003 2.025zm0-2.906c.481 0 .872.395.872.881a.878.878 0 0 1-.872.882.878.878 0 0 1-.872-.882c0-.486.392-.881.872-.881z" fill="#3951E3"/></svg>